<svg xmlns="http://www.w3.org/2000/svg" viewBox="0 506 241.3 336" fill-rule="evenodd">
  <path fill="#444140" d="M61.5 608c-.8.6-1.4 1.3-2 2l-1.6 2.7a19 19 0 0 0-1.8 6.6c-.1 1.9-.3 3.8-.3 5.8v2.5c.2 2.9.7 5.7 1.2 8.5l.5 2.8c.2.8.4 1.7.4 2.4a18 18 0 0 0 1.1 5l.9 2.7.4 1.6A16 16 0 0 0 62 656c1.6 3 4.1 5 7.5 6 2.7.6 5.3 1 8 1.4 4.2.2 8.3.3 12.5.2a69.7 69.7 0 0 0 11.3-.6c1.6-.3 3-1 4.2-2.2l2.6-2.7 1.5-2c.5-1 .7-2 .9-3.1.3-2 .3-3.8.4-5.8l.4-3.1c.3-2 .5-3.7.5-5.6.1-1.8.4-3.5 1-5.1.5-1.3 1.4-2 2.6-2.4l1.5-.4 2.9.8 1.5 1.3c.4 4.3 1.2 8.4 2.4 12.5.6 1.9 1.1 3.8 1.8 5.6l1.8 3.6c.5.7 1.3 1.5 2 2 .6.6 1.3 1 2 1.3l2.4.8a61.2 61.2 0 0 0 12.4 1c8 .5 16.1.7 24.2.8h4.5a27 27 0 0 0 6.8-1.2c.7-.2 1.5-.6 2.2-1 1.3-.6 2.4-1.5 3.4-2.4 1-.8 1.9-1.7 2.7-2.7 1.4-1.8 2-3.6 2-5.7l.1-3.8c.1-2.4.4-4.7.9-7 .2-.4.2-.6.2-1 1.8-1.5 3.9-3 6.1-4 1.3-.6 2.6-1.4 3.8-2.2l1.2-1.3c.4-.5.7-1.2.9-2l.2-2.3c0-1.2-.4-2.3-1.1-3.3a127 127 0 0 0-4.2-5.4 24 24 0 0 0-7.7-5.8l-2.2-.7c-7.3-2.3-14.4-4.8-21.4-7.3a32 32 0 0 0-9-2.6c-3 0-5.8.7-8.4 2l-5.1 2.8-6.3 3.6c-2.5 1.6-5.1 3-7.6 4.4-1.5.7-2.9 1.5-4.3 2a31.8 31.8 0 0 0-13.7-2 23 23 0 0 0-6.3 1.4c-1.5.4-2.9 1-4.4 1.6-1.6.6-3.1 1-4.6 1.7-5-1.1-9.6-3.1-13.8-6.1a23.6 23.6 0 0 0-11.7-4.1h-6.2l-3.6.8a8 8 0 0 0-2.2 1.3z"/>
  <path fill="#EC610A" d="M94.1 719a22 22 0 0 1-.6 3.8 20 20 0 0 1-6.9 11.8c-4 3.4-8.2 6.3-12.6 9 2 3 4 7 6 11.9l.5 1 .9 1.3a9.7 9.7 0 0 1 1.5 2.8c.6 2 1.3 4.6 2.4 7.8l.4 1 .3 1.3.8 2.2.2 1a567 567 0 0 0 2.5 7.7c.5 1.9.7 4.2.4 6.8l-.1 1c-.3 1.9-.8 3.3-1.5 4.4l-.1.5v.3l-.2 2.6.7 1.9c.9.7 2 1.3 3 1.7a61.3 61.3 0 0 0 21.6 2.7c3.3 0 8.3-.2 14.9-.7l11.1-1c19.5 0 30.8-.1 33.8-.3 1.7-.1 3-.2 3.8-.5.5 0 1.4-.1 2.4-.5l3-.6c7.5-1 12-1.6 13.3-2 3.6-.6 6.5-1.8 8.6-3.5a55.3 55.3 0 0 0 16.3-20 120.5 120.5 0 0 0 8.2-40.1c0-2-.2-4.1-.5-6.6a89.4 89.4 0 0 1 0-16.3c.3-4 .5-7 .5-8.8 0-7.3.2-13.8.9-19.4.5-5.6.8-9.4.8-11.1 0-1.8-.5-2.8-1.4-3-.2-.1-.3-.3-.5-.3-1.1-.3-2.1.2-3.1 1.6l-1 2.2-.7 2.3a26.2 26.2 0 0 1-7.3 9 97.1 97.1 0 0 1-12 8.7c-2.4 1-4.5 2-6.2 2.9l.1 1.3c0 .9-.1 2-.4 3.4l-1 3.5-.2.8-.9 3c-.1.8-1 1.9-2.3 3l-3.7 3.6a22.5 22.5 0 0 1-8.5 5.3 44 44 0 0 1-18.1 3.7h-4a68.9 68.9 0 0 1-31-7.3c-2.5 1.4-4.1 2.3-4.9 2.6a35.4 35.4 0 0 1-13.8 2.3c-5.6 0-9.8-1-12.7-3.1l-2.7 1.5zM58.4 560.8c.6 0 1.1.3 1.4.7l4-.1c10.9-.2 20.9-.5 29.7-1a164 164 0 0 1 26.3-1.8c2.8-.1 5.8-.5 9.1-.7 7.9-.8 12.7-1.1 14.5-1.2l5.8-.2c11-.4 20.2-.7 27.6-1.1l2.1-.1 28.1-1.5 18.6-1 10.6-.3c.1-.4.4-.7.7-1l.2-.5a79 79 0 0 0-7.7-10.5 72.2 72.2 0 0 0-14-13.8c-5.6-3.7-13.6-8.3-24-14a57 57 0 0 0-23.7-6c-7.4-.5-16.4-.4-27.1.5-13 1-24.6 3.6-35 7.9-6.8 2.9-14.5 7.2-23.2 12.9-6.1 4-11.4 9-15.6 14.8a210 210 0 0 0-4.9 7.2c-2.4 3.7-3.5 6.3-3.5 7.8l.1 2-.1.6v.4zM62.5 565.2c-4.4 0-7 1.8-8 5.3l-.2 1.8a25 25 0 0 0-1.8 11.4v1.3l.1 1.6c.2 1.2.4 2.4.8 3.5 1.5 4.8 4.5 7.2 8.9 7.2l13.2-1.2c9.3-1 15.2-1.3 17.5-1.5l26-1.3 32.7-1.2 13.4-1.1a606.8 606.8 0 0 1 60-3.3c3.2-.1 5.3-.2 6.2-.5l.9-.4c4.3-.1 7-1.8 8-5.3l.3-3 .2-6-.1 3.5c.7-8.3.7-13.6-.4-16-1-2.2-2.6-3.5-4.8-3.8-2.1-.3-7.7-.2-16.7.3l-17.1.8c-12.4.7-21 1.2-25.9 1.3-.6 0-1.3 0-1.9.2l-25.5 1c-1.7 0-3.5 0-5.3.2-1.7 0-6.2.4-13.4 1l-8.4.8c-7.9 0-14.7.4-20.6 1.2-1.3 0-2.4.3-3.6.4-8.2.4-17.3.7-27.5.9-3.2 0-5.3.2-6.1.5-.4 0-.6.2-.9.4z"/>
  <path fill="#EC610A" d="M99.9 678c-3.9.9-6.8 1.6-8.7 2.3-1.9.7-4.4 1.4-7.5 2.3l6.4 12.8a63.1 63.1 0 0 1 4.2 20l2.7-1.8 7.4-5.7a35 35 0 0 1 7.3-4.1c1.5.5 3.3.9 5.3 1.4 1.9.4 4 1.4 6.2 3 1.2.9 2.9 2 5 3.7a67.7 67.7 0 0 0 34 9.4c6.1 0 12-1.2 17.5-3.6 4-1.7 6.6-3.4 8.1-5.1l3.5-3.3c1.3-1.2 2-2.2 2.3-3l.8-3.3c.4-1.4.5-2.4.5-3.3 0-1.5-.3-2.4-1.1-3-.4-.2-.8-.4-1.4-.4-.3 0-1.2.5-2.6 1.4-1.5 1-4.3 1.5-8.5 1.5-4.6 0-11.2-2.4-19.7-7.1-7.8-4.8-11.8-7.3-12.2-7.4l-8.6-2.8a25.1 25.1 0 0 1-6.8-3.3c-3.7-1.4-9.7-2-17.8-2-6.4.2-11.9.7-16.3 1.5z"/>
  <path fill="#4d6837" d="M60.5 666.9c-3.6-2.7-6.8-5-9.5-6.8-5.5-3.6-10.9-8-16.1-12.8A113 113 0 0 0 21 636.2a36 36 0 0 0-6.6-3.6A161.6 161.6 0 0 0 .8 683l-.4 4.5c-.7 9-.4 18 1 26.9a45.6 45.6 0 0 0 18.3 30.2l-.1-.7v-4.1a24.8 24.8 0 0 1 10.3-20.2l2-1.4 1.8-1c.9-.4 1.9-.6 2.9-.8.9-.3 1.9-.6 2.8-.7l1-.1h.7c2.8-.2 5.5.8 8.2 3a21 21 0 0 1 4.3 5c.7 1 1.4 2 2 3.3 1.1 1.9 1.9 3.6 2.3 4.9.3.7.6 1.3.7 2l.3.8c.2.9.1 2.3-.3 4.4-.5 1.9-1.2 4.4-2.3 7.4-.4 1.2-.8 2.4-1 3.5 1.8-.6 3.6-1.2 5.5-2l6.4-3.1 3-1.7a93 93 0 0 0 12.6-9 20.7 20.7 0 0 0 7.5-15.5c.2-1.2.2-2.5.2-3.7a56.5 56.5 0 0 0-4.2-20l-1.8-4a45.5 45.5 0 0 0-11.7-14.1l-12.3-10zm-38.3-6c.8 4.7 1.2 7.2 1.4 7.6a260.9 260.9 0 0 0 8.5 22.1l3.9 9 1-.5h.3l.8-3.5c.2-.3.3-1.4.4-3.1l.6-3c.8-2.5 1.8-3.8 3.2-3.7 1.1 0 1.8.8 2.2 2l-3.5 22c.1.3 0 .8-.1 1-.3.8-.8 1.2-1.4 1.3-1 .3-1.7 0-2.4-.6l-.5-1-.1-1-.2-.3-.5-1.1c-3.1-2.6-6.8-5.6-11.2-9l-8.1-6.8c-.3-1.1 0-2 .9-2.6 1.2-.6 2.5-.4 4.1.8l4.9 4c.2 0 .8.6 1.9 1.2l.8-.4h.2l-2.6-6.1-4.5-12-2.9-7.5-1.7-6.5c-.2-1.4.4-2.7 1.7-4 1.3-1.1 2.3-.5 2.9 1.8z"/>
  <path fill="#444140" d="M68.1 748.2c-.1.2-.3.2-.6.4-1.1.5-2.7 1.3-4.6 2a44.4 44.4 0 0 1-7.9 3c-.1.2-.5.3-.9.6l.5 2.2c.2.7 1 1.8 2.4 3.4a130 130 0 0 1 13.6 15.6l1.9 2.4c.2 0 .3.3.5.6h.2v.2l-.2 1.8-.2.7c-.3 0-.6.3-1.1.5l-5.6-6c-.8-1-1.8-1.8-2.8-2.8a51.7 51.7 0 0 1-12.4-15.4l-.1-.3-.1-.4-.1-.6.1-.7-.1-.1a55 55 0 0 1 2.4-9.9c2.1-5.7 2.9-9.5 2.5-11.3-.4-1.3-1.2-3-2.4-5.2-1.6-3-3.4-5.3-5.4-7-6.1-5.1-12.7-3.4-19.8 5a23 23 0 0 0-4.8 14.5c-.2 4.5.3 9 1.5 13.7l.3 1 .1.3.1.2 2.5 8.7.8 6.4 1.1 4.3c.4 1.6.9 2.8 1.4 3.6.7 1.2 1.4 2.8 2.1 4.9l.9 2.9.5 1.7-.5.8h-.4c-.4.2-1.2.2-2.4.2l-.2-.3c-.7-3-1.2-4.6-1.5-5.4-.7-2-1.5-3.7-2.2-5-.4-.7-.9-2-1.3-3.5l-.8-2.8-.4-1.4-.1-1.6-1-.7-1.2-.8c-1 .3-2.3 1-3.8 2-3.8 2.5-5.9 4.9-6.2 7-.1.8-.8 3-2.1 6.4l-.8 1.7c-1.3 1.3-1.9 3.8-1.8 7.3 0 2.5.4 4.9 1 7.4a34 34 0 0 0 8.2 12c5.7 6.3 9 9.9 9.7 11l3.8 5.9c1.6 2.2 3.3 4 5 5.7a23 23 0 0 0 12.9 6.8c3.1.4 8.1-.5 15-2.3 10.4-2.8 17.7-5.3 22-7.5 3.1-1.5 4.8-3 5.2-4.5.3-1.4.5-3 .3-4.5 0-.7-.3-2.2-.7-4.1l-2.4-10-.5-2a66.4 66.4 0 0 0-2.2-8v-.1l-.1-.2-.6-2 .1-2.5.1-.3.1-.5a10 10 0 0 0 1.4-4.4l.2-1a21 21 0 0 0-.4-6.8c-1-3-1.9-5.5-2.5-7.7a19 19 0 0 1-1-3.2l-.4-1.3-.4-1-1.1-1.8-.9-1.4-.5-1a66.2 66.2 0 0 0-8-14.6l-1.5-1.6-1.4.7zm10.6 32.2l-.2-.3.2-.2v.5z"/>
</svg>
